<mxfile host="app.diagrams.net" modified="2023-02-26T14:05:59.264Z" agent="5.0 (X11; Linux x86_64) AppleWebKit/537.36 (KHTML, like Gecko) Chrome/110.0.0.0 Safari/537.36" etag="_x1XyrACerFroMsvknba" version="20.8.23" type="github">
  <diagram name="Page-1" id="o07dg4AVqxrbk9WX1n3v">
    <mxGraphModel dx="880" dy="465" grid="1" gridSize="10" guides="1" tooltips="1" connect="1" arrows="1" fold="1" page="1" pageScale="1" pageWidth="850" pageHeight="1100" math="0" shadow="0">
      <root>
        <mxCell id="0" />
        <mxCell id="1" parent="0" />
        <mxCell id="Tz2cKRC0SnkpzSGxFOoo-1" value="" style="swimlane;startSize=0;" vertex="1" parent="1">
          <mxGeometry x="380" y="200" width="90" height="90" as="geometry" />
        </mxCell>
        <mxCell id="Tz2cKRC0SnkpzSGxFOoo-3" value="HTML" style="text;html=1;align=center;verticalAlign=middle;resizable=0;points=[];autosize=1;strokeColor=none;fillColor=none;" vertex="1" parent="Tz2cKRC0SnkpzSGxFOoo-1">
          <mxGeometry x="10" y="30" width="60" height="30" as="geometry" />
        </mxCell>
        <mxCell id="Tz2cKRC0SnkpzSGxFOoo-4" value="" style="swimlane;startSize=0;" vertex="1" parent="1">
          <mxGeometry x="520" y="200" width="90" height="90" as="geometry" />
        </mxCell>
        <mxCell id="Tz2cKRC0SnkpzSGxFOoo-5" value="CSS" style="text;html=1;align=center;verticalAlign=middle;resizable=0;points=[];autosize=1;strokeColor=none;fillColor=none;" vertex="1" parent="Tz2cKRC0SnkpzSGxFOoo-4">
          <mxGeometry x="15" y="30" width="50" height="30" as="geometry" />
        </mxCell>
      </root>
    </mxGraphModel>
  </diagram>
</mxfile>
